<svg id="Layer_1" data-name="Layer 1" xmlns="http://www.w3.org/2000/svg" viewBox="0 0 85.05 92.73"><defs><style>.cls-1{fill:#ffffff;}</style></defs><title>BB logo</title><path class="cls-1" d="M435.53,296.79a11.51,11.51,0,0,1-2.73,7.69,13.48,13.48,0,0,1-7.56,4.29,39.75,39.75,0,0,1-7.2,1q-3.39.15-19.87.15a25.61,25.61,0,0,1-2.74-.08.45.45,0,0,1-.43-.5c0-.43.78-.65,2.34-.65s2.53-.23,2.91-.68.58-1.58.58-3.36V263.42c0-1.4-1.12-2.12-3.35-2.16-1.7-.05-2.55-.25-2.55-.62s.52-.61,1.58-.61h20.23q16.63,0,16.63,11.41,0,9.46-12.38,11.7l-.14.29q7.26,1.51,10.08,3.82A11.92,11.92,0,0,1,435.53,296.79ZM424,296.46q0-10.14-5.76-11.8a24.94,24.94,0,0,0-6.55-.65v4.17c0,1.2-.05,2.91-.14,5.12q-.07,1.65-.07,6.19,0,7.77.43,8.28c.38.53,1.46.79,3.24.79Q424,308.56,424,296.46Zm-1.36-24.62q0-10.44-6.36-10.44a13.08,13.08,0,0,0-3,.22,2.11,2.11,0,0,0-1.56,2.23v19q6.29,0,8.62-2.23T422.65,271.84Z" transform="translate(-354.06 -260.03)"/><path class="cls-1" d="M362.61,287.25q2.81-2.31,10.08-3.82l-.15-.29q-12.37-2.24-12.38-11.7,0-11.42,16.63-11.41H397c1.06,0,1.59.21,1.59.61s-.85.57-2.55.62q-3.36.06-3.36,2.16v41.24c0,1.78.2,2.9.58,3.36s1.36.68,2.92.68,2.34.22,2.34.65a.46.46,0,0,1-.44.5,25.22,25.22,0,0,1-2.73.08q-16.49,0-19.87-.15a39.51,39.51,0,0,1-7.2-1,13.41,13.41,0,0,1-7.56-4.29,11.47,11.47,0,0,1-2.74-7.69A11.93,11.93,0,0,1,362.61,287.25Zm15.77,21.31c1.77,0,2.85-.26,3.24-.79.28-.34.43-3.1.43-8.28,0-3,0-5.09-.07-6.19-.1-2.21-.15-3.92-.15-5.12V284a25,25,0,0,0-6.55.65q-5.76,1.65-5.76,11.8Q369.52,308.56,378.38,308.56Zm-5.16-27.94q2.32,2.24,8.61,2.23v-19a2.12,2.12,0,0,0-1.55-2.23,13.25,13.25,0,0,0-3-.22q-6.35,0-6.35,10.44Q370.89,278.4,373.22,280.62Z" transform="translate(-354.06 -260.03)"/><path class="cls-1" d="M376.34,327.11a3.83,3.83,0,0,1-.91,2.57,4.51,4.51,0,0,1-2.52,1.43,13.51,13.51,0,0,1-2.4.33c-.75,0-3,.05-6.63.05-.51,0-.81,0-.91,0a.16.16,0,0,1-.14-.17c0-.14.26-.22.78-.22s.84-.07,1-.22a2,2,0,0,0,.19-1.12V316c0-.47-.37-.71-1.12-.72-.56,0-.85-.08-.85-.21s.18-.2.53-.2h6.75q5.54,0,5.54,3.8,0,3.16-4.13,3.9l-.05.1a8.21,8.21,0,0,1,3.36,1.27A4,4,0,0,1,376.34,327.11ZM372.5,327q0-3.37-1.92-3.93a8.19,8.19,0,0,0-2.18-.22v1.39c0,.4,0,1,0,1.71,0,.37,0,1.05,0,2.06a11,11,0,0,0,.15,2.76q.19.27,1.08.27Q372.51,331,372.5,327Zm-.46-8.2c0-2.32-.7-3.48-2.11-3.48a4.55,4.55,0,0,0-1,.07.7.7,0,0,0-.51.74v6.34a4.17,4.17,0,0,0,2.87-.75A4.11,4.11,0,0,0,372,318.8Z" transform="translate(-354.06 -260.03)"/><path class="cls-1" d="M384.28,331.3c0,.11-.07.17-.21.17H378c-.19,0-.29-.05-.29-.16s.19-.12.55-.13q.83,0,1-.18a1.73,1.73,0,0,0,.15-.95v-6.93a2.17,2.17,0,0,0-.16-1.09c-.1-.13-.42-.19-1-.19a3.3,3.3,0,0,1-.58,0c-.06,0-.09-.07-.09-.17s.12-.17.36-.17a11.65,11.65,0,0,0,4.51-.81,14.86,14.86,0,0,1,.12,1.58v7.56c0,.66.06,1,.18,1.15s.53.17,1.24.17C384.2,331.13,384.28,331.19,384.28,331.3Zm-1.68-15.22a1.61,1.61,0,0,1-.46,1.16,1.52,1.52,0,0,1-1.13.48,1.62,1.62,0,0,1-1.16-.46,1.54,1.54,0,0,1-.46-1.15,1.45,1.45,0,0,1,.46-1.11,1.75,1.75,0,0,1,1.21-.43,1.53,1.53,0,0,1,1.1.43A1.43,1.43,0,0,1,382.6,316.08Z" transform="translate(-354.06 -260.03)"/><path class="cls-1" d="M392.49,328.13a3.59,3.59,0,0,1-1,2.61,3.41,3.41,0,0,1-2.54,1,5.53,5.53,0,0,1-1.81-.38A4.38,4.38,0,0,0,386,331a.58.58,0,0,0-.6.34c-.09.24-.16.35-.21.35s-.15-.05-.15-.17,0-.25,0-.46a14,14,0,0,0,.06-1.59v-1.18q0-.27.12-.27c.1,0,.17.12.22.36a3.6,3.6,0,0,0,3.46,3,1.73,1.73,0,0,0,1.28-.5,1.7,1.7,0,0,0,.49-1.28,1.39,1.39,0,0,0-.46-1.06,6.1,6.1,0,0,0-1.8-.79,6.21,6.21,0,0,1-2.6-1.45,3,3,0,0,1-.81-2.17,3.29,3.29,0,0,1,1-2.4,3.16,3.16,0,0,1,2.36-1,8.9,8.9,0,0,1,1.82.34,1.45,1.45,0,0,0,.29,0c.35,0,.61-.22.79-.65q0-.12.12-.12c.11,0,.17.1.17.29l0,.45a2.44,2.44,0,0,0,0,.34,17.49,17.49,0,0,0,.12,2v.12c0,.12,0,.19-.14.19s-.15-.07-.2-.22c-.46-1.63-1.4-2.45-2.83-2.45a2,2,0,0,0-1.31.44,1.36,1.36,0,0,0-.51,1.1,1.19,1.19,0,0,0,.43,1,6.14,6.14,0,0,0,1.68.82,8,8,0,0,1,3,1.54A2.88,2.88,0,0,1,392.49,328.13Z" transform="translate(-354.06 -260.03)"/><path class="cls-1" d="M405.59,331.37q0,.15-.21.15h-1.92a23.57,23.57,0,0,1-2.55-.08h-.38l-.58.08c-.2,0-.31,0-.31-.18s0-.16.12-.16h.55c.36,0,.56-.08.6-.29a23.36,23.36,0,0,0,0-2.4v-3.57a8.8,8.8,0,0,0-.21-2.64,1.21,1.21,0,0,0-1.19-.63,1.56,1.56,0,0,0-1.43.85,4.09,4.09,0,0,0-.24,1.76v6.58q0,.36,1,.36.21,0,.21.15c0,.11-.1.17-.31.17h-.19a1.67,1.67,0,0,0-.58-.08H397l-1.34,0-1.42,0h-.72q-.36,0-.36-.15c0-.05,0-.08.05-.09a.51.51,0,0,1,.22,0,4.21,4.21,0,0,0,1.08-.07c.11-.05.18-.23.21-.55s0-1.15,0-2.88v-8.81a21,21,0,0,0-.11-3q-.1-.39-1-.39c-.46,0-.7-.05-.7-.15s.27-.16.82-.19a15.26,15.26,0,0,0,3.46-.62,1.61,1.61,0,0,1,.45-.1c.13,0,.19.45.19,1.34v6.63a4.41,4.41,0,0,1,1.36-1.35,3.76,3.76,0,0,1,1.79-.36,2.74,2.74,0,0,1,3,1.92,6.56,6.56,0,0,1,.22,2v5.59c0,.42.07.67.2.77a2.16,2.16,0,0,0,1,.14C405.51,331.2,405.59,331.26,405.59,331.37Z" transform="translate(-354.06 -260.03)"/><path class="cls-1" d="M417.28,326.36a5,5,0,0,1-2,4.15,5.53,5.53,0,0,1-3.48,1.25,5.35,5.35,0,0,1-3.9-1.62,5.2,5.2,0,0,1-1.65-3.83,5.3,5.3,0,0,1,1.65-3.93,5.44,5.44,0,0,1,4-1.62,5.15,5.15,0,0,1,3.83,1.65A5.46,5.46,0,0,1,417.28,326.36Zm-3.62,0a13.66,13.66,0,0,0-.41-4.08c-.3-.82-.78-1.22-1.45-1.22s-1.11.42-1.46,1.28a9.65,9.65,0,0,0-.52,3.54,11.27,11.27,0,0,0,.62,4.46,1.54,1.54,0,0,0,1.41,1.06c.74,0,1.24-.45,1.47-1.34A15.08,15.08,0,0,0,413.66,326.38Z" transform="translate(-354.06 -260.03)"/><path class="cls-1" d="M430.12,326.06a6,6,0,0,1-1.39,4.07,4.38,4.38,0,0,1-3.46,1.63,3,3,0,0,1-2.54-1.25v5.38a3,3,0,0,0,.07.85.39.39,0,0,0,.32.22,9.46,9.46,0,0,0,1.27.08c.17,0,.26.07.26.23s-.1.17-.31.17h-6c-.35,0-.53-.06-.53-.19s.29-.17.87-.17.74,0,.8-.14a2.61,2.61,0,0,0,.08-.91v-13.3a.54.54,0,0,0-.38-.62,2.84,2.84,0,0,0-.82-.07h-.45c-.13,0-.19-.05-.19-.15s.09-.17.28-.14a11.4,11.4,0,0,0,4.47-1,.9.9,0,0,1,.12.38l0,.6,0,.41a4,4,0,0,1,1.27-1.1,3.9,3.9,0,0,1,1.61-.29,4.22,4.22,0,0,1,3.31,1.5A5.47,5.47,0,0,1,430.12,326.06Zm-3.53-.1q0-4.57-2-4.57a1.83,1.83,0,0,0-1.52.86,2.47,2.47,0,0,0-.29,1.37v4.71a4,4,0,0,0,.38,2.08,1.7,1.7,0,0,0,1.48.82C425.93,331.23,426.59,329.47,426.59,326Z" transform="translate(-354.06 -260.03)"/><path class="cls-1" d="M367.59,348.11a3.83,3.83,0,0,1-.91,2.57,4.51,4.51,0,0,1-2.52,1.43,13.51,13.51,0,0,1-2.4.33c-.75,0-3,.05-6.62.05-.52,0-.82,0-.92,0a.16.16,0,0,1-.14-.17c0-.14.26-.22.78-.22s.84-.07,1-.22a2,2,0,0,0,.19-1.12V337q0-.71-1.11-.72c-.57,0-.85-.08-.85-.21s.17-.2.52-.2h6.75q5.54,0,5.54,3.8c0,2.11-1.37,3.41-4.13,3.9l0,.1a8.34,8.34,0,0,1,3.36,1.27A4,4,0,0,1,367.59,348.11Zm-3.84-.11q0-3.37-1.92-3.93a8.14,8.14,0,0,0-2.18-.22v1.39c0,.4,0,1,0,1.71,0,.37,0,1.05,0,2.06a11.36,11.36,0,0,0,.14,2.76q.19.27,1.08.27Q363.76,352,363.75,348Zm-.45-8.2c0-2.32-.71-3.48-2.12-3.48a4.38,4.38,0,0,0-1,.07.7.7,0,0,0-.52.74v6.34a4.17,4.17,0,0,0,2.87-.75A4.05,4.05,0,0,0,363.3,339.8Z" transform="translate(-354.06 -260.03)"/><path class="cls-1" d="M378,343.56a1.57,1.57,0,0,1-.41,1.14,1.35,1.35,0,0,1-1.05.45c-.87,0-1.3-.4-1.3-1.2a1.4,1.4,0,0,1,.31-.82.29.29,0,0,0,.08-.17c0-.14-.11-.21-.31-.21-.54,0-1,.42-1.23,1.27a15,15,0,0,0-.24,3.52v3.85a.62.62,0,0,0,.65.69c.25,0,.56,0,.91,0,.18,0,.26.07.26.17s-.07.19-.21.19H369.2c-.18,0-.26-.05-.26-.16s.11-.15.33-.15a2.38,2.38,0,0,0,1.19-.21c.13-.12.2-.47.2-1.06l0-6.47a2,2,0,0,0-.23-1.12,1.36,1.36,0,0,0-1-.38c-.41,0-.65-.06-.71-.07s-.08-.07-.08-.16.06-.13.19-.13h.89a11.84,11.84,0,0,0,4-.77,4.57,4.57,0,0,1,.12,1.1v1a4.32,4.32,0,0,1,1-1.64,2.08,2.08,0,0,1,1.4-.47,1.87,1.87,0,0,1,1.34.5A1.72,1.72,0,0,1,378,343.56Z" transform="translate(-354.06 -260.03)"/><path class="cls-1" d="M389.77,347.36a5,5,0,0,1-2,4.15,5.53,5.53,0,0,1-3.48,1.25,5.38,5.38,0,0,1-3.9-1.62,5.19,5.19,0,0,1-1.64-3.83,5.29,5.29,0,0,1,1.64-3.93,5.46,5.46,0,0,1,4-1.62,5.13,5.13,0,0,1,3.83,1.65A5.47,5.47,0,0,1,389.77,347.36Zm-3.63,0a13.75,13.75,0,0,0-.4-4.08c-.3-.82-.79-1.22-1.46-1.22s-1.1.42-1.45,1.28a9.63,9.63,0,0,0-.53,3.54,11.46,11.46,0,0,0,.62,4.46,1.56,1.56,0,0,0,1.41,1.06c.75,0,1.24-.45,1.48-1.34A15.69,15.69,0,0,0,386.14,347.38Z" transform="translate(-354.06 -260.03)"/><path class="cls-1" d="M398.65,350.91c0,.17-.16.41-.46.69a4.52,4.52,0,0,1-3.27,1.13,2.8,2.8,0,0,1-2.51-.93,1.54,1.54,0,0,1-.28-.68c0-.2,0-.74,0-1.6v-1.16a7.33,7.33,0,0,0,.05-1l-.05-.5V343c0-.29,0-.45-.12-.5a2,2,0,0,0-.72-.07c-.48,0-.72-.07-.72-.2s.09-.16.27-.19a4.89,4.89,0,0,0,3.89-2.45q.21-.33.33-.33t.15.33a6.31,6.31,0,0,0,.16,2.26c.13.13.52.19,1.18.19a7.67,7.67,0,0,0,1.42-.09l.09,0c.07,0,.1.05.1.15s-.1.35-.31.35c-.65,0-1.37,0-2.17,0h-.33v.5q0,6.41.1,7.5c.14.92.6,1.38,1.36,1.38a2.29,2.29,0,0,0,1.32-.72,1.45,1.45,0,0,1,.48-.33C398.62,350.79,398.65,350.83,398.65,350.91Z" transform="translate(-354.06 -260.03)"/><path class="cls-1" d="M410.72,352.37c0,.1-.07.15-.22.15h-1.92a23.47,23.47,0,0,1-2.54-.08h-.39l-.57.08c-.21,0-.31,0-.31-.18s0-.16.12-.16h.55c.35,0,.55-.08.6-.29s0-.93,0-2.4v-3.57a8.3,8.3,0,0,0-.22-2.64,1.19,1.19,0,0,0-1.19-.63,1.58,1.58,0,0,0-1.43.85,4.09,4.09,0,0,0-.24,1.76v6.58q0,.36,1,.36.21,0,.21.15c0,.11-.1.17-.31.17h-.19a1.67,1.67,0,0,0-.58-.08h-1.05l-1.35,0-1.41,0h-.72q-.36,0-.36-.15c0-.05,0-.08.05-.09a.45.45,0,0,1,.21,0,4.21,4.21,0,0,0,1.08-.07c.11-.05.19-.23.22-.55s0-1.15,0-2.88v-8.81a19.39,19.39,0,0,0-.11-3q-.1-.39-1-.39-.69,0-.69-.15c0-.09.27-.16.81-.19a15.16,15.16,0,0,0,3.46-.62,1.59,1.59,0,0,1,.46-.1c.12,0,.19.45.19,1.34v6.63a4.29,4.29,0,0,1,1.35-1.35,3.76,3.76,0,0,1,1.79-.36,2.75,2.75,0,0,1,3,1.92,7,7,0,0,1,.21,2v5.59c0,.42.07.67.21.77a2.1,2.1,0,0,0,1,.14C410.64,352.2,410.72,352.26,410.72,352.37Z" transform="translate(-354.06 -260.03)"/><path class="cls-1" d="M421,349.52a2.66,2.66,0,0,1-.63,1.39,4.14,4.14,0,0,1-3.5,1.85,5.44,5.44,0,0,1-4-1.54,5.29,5.29,0,0,1-1.56-3.94,5.43,5.43,0,0,1,1.51-3.92,5,5,0,0,1,3.77-1.57,4.83,4.83,0,0,1,2.61.67,3.44,3.44,0,0,1,1.56,2.14,7.64,7.64,0,0,1,.15,1q-.56.06-4.44.09c-.4,0-.91,0-1.52,0,0,.58-.07,1.06-.07,1.46,0,1.87.39,3.19,1.18,4a2.32,2.32,0,0,0,1.7.69,2.71,2.71,0,0,0,1.62-.57,3.71,3.71,0,0,0,1.19-1.49c.13-.31.23-.46.31-.46S421,349.42,421,349.52Zm-3-4.2a7.36,7.36,0,0,0-.26-2.55,1,1,0,0,0-1-.72q-1.46,0-1.68,3.27H418Z" transform="translate(-354.06 -260.03)"/><path class="cls-1" d="M430.81,343.56a1.61,1.61,0,0,1-.41,1.14,1.37,1.37,0,0,1-1.06.45q-1.29,0-1.29-1.2a1.34,1.34,0,0,1,.31-.82.27.27,0,0,0,.07-.17c0-.14-.1-.21-.31-.21-.53,0-.95.42-1.23,1.27a15,15,0,0,0-.24,3.52v3.85a.62.62,0,0,0,.65.69c.26,0,.56,0,.91,0,.18,0,.27.07.27.17s-.07.19-.22.19H422c-.17,0-.26-.05-.26-.16s.11-.15.34-.15a2.33,2.33,0,0,0,1.18-.21c.14-.12.21-.47.21-1.06l0-6.47a2,2,0,0,0-.22-1.12,1.39,1.39,0,0,0-1-.38c-.42,0-.66-.06-.71-.07s-.09-.07-.09-.16.07-.13.2-.13h.88a11.9,11.9,0,0,0,4-.77,4.57,4.57,0,0,1,.12,1.1v1a4.2,4.2,0,0,1,1-1.64,2.09,2.09,0,0,1,1.41-.47,1.84,1.84,0,0,1,1.33.5A1.73,1.73,0,0,1,430.81,343.56Z" transform="translate(-354.06 -260.03)"/><path class="cls-1" d="M439.11,349.13a3.59,3.59,0,0,1-1,2.61,3.43,3.43,0,0,1-2.54,1,5.64,5.64,0,0,1-1.82-.38,4.24,4.24,0,0,0-1.12-.31.58.58,0,0,0-.6.34c-.09.24-.16.35-.21.35s-.15-.05-.15-.17,0-.25,0-.46a14,14,0,0,0,.06-1.59v-1.18q0-.27.12-.27c.09,0,.17.12.21.36a3.46,3.46,0,0,0,1.22,2.12,3.39,3.39,0,0,0,2.25.86,1.7,1.7,0,0,0,1.77-1.78,1.39,1.39,0,0,0-.46-1.06,6.1,6.1,0,0,0-1.8-.79,6.21,6.21,0,0,1-2.6-1.45,3,3,0,0,1-.81-2.17,3.29,3.29,0,0,1,1-2.4,3.16,3.16,0,0,1,2.36-1,8.9,8.9,0,0,1,1.82.34,1.45,1.45,0,0,0,.29,0c.35,0,.61-.22.79-.65q0-.12.12-.12c.11,0,.17.1.17.29l0,.45a2.44,2.44,0,0,0,0,.34,17.49,17.49,0,0,0,.12,2v.12c0,.12,0,.19-.14.19s-.15-.07-.2-.22c-.46-1.63-1.4-2.45-2.83-2.45a2,2,0,0,0-1.31.44,1.36,1.36,0,0,0-.51,1.1,1.19,1.19,0,0,0,.43,1,6.14,6.14,0,0,0,1.68.82,8,8,0,0,1,2.95,1.54A2.88,2.88,0,0,1,439.11,349.13Z" transform="translate(-354.06 -260.03)"/></svg>